<svg width="22" height="22" viewBox="0 0 22 22" fill="none" xmlns="http://www.w3.org/2000/svg">
<g clip-path="url(#clip0_107_91)">
<path d="M11 22C17.0751 22 22 17.0751 22 11C22 4.92487 17.0751 0 11 0C4.92487 0 0 4.92487 0 11C0 17.0751 4.92487 22 11 22Z" fill="#7AA5DA"/>
<path d="M21.9968 10.7455L17.1138 5.87061L9.15991 15.5656L14.887 21.2927C19.0437 19.7221 22 15.7066 22 11C22 10.9149 21.9987 10.8301 21.9968 10.7455Z" fill="#5786B5"/>
<path d="M16.4879 5.73721C16.9264 5.56611 17.3798 5.94982 17.2835 6.41053L15.3168 15.8113C15.2249 16.252 14.7071 16.4505 14.3442 16.1839L11.3753 14.0046L9.86199 15.5498C9.59605 15.8209 9.13753 15.7106 9.02345 15.3491L7.93161 11.8831L5.00493 11.0187C4.62048 10.9053 4.59827 10.3705 4.97085 10.2246L16.4879 5.73721ZM15.0442 7.82313C15.1723 7.70977 15.0234 7.5098 14.8782 7.60016L8.56119 11.5179C8.45007 11.5868 8.39898 11.7224 8.43822 11.8475L9.2997 15.6305C9.31675 15.6883 9.39968 15.6801 9.40712 15.6201L9.5997 12.7372C9.60709 12.6661 9.64117 12.6009 9.69454 12.5535L15.0442 7.82313Z" fill="white"/>
<path d="M14.8782 7.60018C15.0233 7.50982 15.1722 7.70979 15.0441 7.82314L9.6945 12.5535C9.64117 12.6009 9.6071 12.6661 9.59966 12.7372L9.40708 15.6202C9.39969 15.6802 9.31671 15.6883 9.29965 15.6305L8.43817 11.8476C8.3989 11.7224 8.45003 11.5868 8.56115 11.5179L14.8782 7.60018Z" fill="#9EC2E5"/>
<path d="M9.33085 15.6697C9.19159 15.6201 9.07381 15.509 9.02345 15.349L7.93161 11.883L5.00493 11.0186C4.62048 10.9052 4.59827 10.3704 4.97085 10.2245L16.4879 5.73716C16.7708 5.62678 17.0605 5.74752 17.2034 5.97126C17.1767 5.93052 17.1449 5.89275 17.1094 5.85941L9.296 12.2379V12.5172L9.25303 12.4861L9.296 14.2446V15.655C9.30713 15.6602 9.31895 15.6646 9.33081 15.6683V15.6697H9.33085Z" fill="white"/>
<path d="M17.2959 6.25271C17.2981 6.30307 17.2944 6.35639 17.2833 6.41049L15.3166 15.8112C15.2248 16.252 14.707 16.4505 14.344 16.1838L11.3752 14.0046L9.2959 12.5172V12.2379L17.1093 5.85938C17.1448 5.89272 17.1767 5.93049 17.2033 5.97122C17.2085 5.98012 17.2137 5.98824 17.2189 5.9964C17.2233 6.0053 17.2285 6.01419 17.233 6.02231C17.2374 6.03121 17.2419 6.0401 17.2455 6.049C17.25 6.05862 17.2537 6.06752 17.2574 6.07714C17.2604 6.08531 17.2641 6.09416 17.267 6.10382C17.2767 6.1327 17.284 6.16235 17.2892 6.19346C17.2922 6.21271 17.2944 6.232 17.2959 6.25271Z" fill="#D1D1D1"/>
<path d="M11.3751 14.0046L9.8618 15.5498C9.84921 15.5624 9.83589 15.575 9.82252 15.5861C9.8092 15.5972 9.79584 15.6068 9.78179 15.6165C9.78106 15.6172 9.78106 15.6172 9.78106 15.6172C9.75291 15.6357 9.72404 15.6513 9.69366 15.6639C9.67811 15.6698 9.66328 15.6757 9.64773 15.6794C9.58327 15.6987 9.51736 15.7039 9.45218 15.6972C9.43516 15.6957 9.4181 15.6928 9.40182 15.6898C9.39958 15.6898 9.39739 15.6891 9.39516 15.6883C9.37887 15.6839 9.36254 15.6795 9.34626 15.6743C9.34106 15.6728 9.3359 15.6713 9.3307 15.6683L9.2959 14.2446V12.5172L11.3751 14.0046Z" fill="#D1D1D1"/>
<path d="M9.82272 15.5861C9.8094 15.5972 9.79603 15.6075 9.78198 15.6172V15.6164C9.79608 15.6068 9.8094 15.5972 9.82272 15.5861Z" fill="#DADDE0"/>
<path d="M9.78198 15.6165V15.6172C9.78198 15.6172 9.78198 15.6165 9.78125 15.6172C9.78125 15.6172 9.78125 15.6172 9.78198 15.6165Z" fill="#DADDE0"/>
<path d="M9.69385 15.6639C9.72423 15.6513 9.7531 15.6357 9.78125 15.6172C9.7531 15.6357 9.72345 15.6512 9.69385 15.6639Z" fill="#DADDE0"/>
<path d="M9.45239 15.6972C9.51758 15.7039 9.58349 15.6987 9.64794 15.6794C9.60128 15.6943 9.55311 15.7009 9.50499 15.7009C9.49016 15.7009 9.47534 15.7002 9.46129 15.6987C9.45832 15.6987 9.45536 15.6987 9.45239 15.6972Z" fill="#DADDE0"/>
<path d="M9.45228 15.6972C9.45525 15.6987 9.45821 15.6987 9.46118 15.6987C9.44562 15.6979 9.43153 15.6957 9.41675 15.6927C9.42856 15.695 9.44042 15.6965 9.45228 15.6972Z" fill="white"/>
<path d="M9.45246 15.6971C9.4406 15.6964 9.42874 15.6949 9.41692 15.6927C9.41172 15.6919 9.40657 15.6912 9.4021 15.6897C9.41838 15.6927 9.4354 15.6956 9.45246 15.6971Z" fill="#DADDE0"/>
<path d="M9.34644 15.6742C9.36272 15.6794 9.37905 15.6838 9.39533 15.6883C9.38867 15.6868 9.38201 15.6853 9.37535 15.6839C9.37239 15.6831 9.36942 15.6824 9.36719 15.6809C9.36049 15.6794 9.3531 15.6772 9.34644 15.6742Z" fill="#DADDE0"/>
<path d="M9.37524 15.6838C9.3819 15.6853 9.38856 15.6868 9.39522 15.6883C9.38856 15.6875 9.3819 15.6861 9.37524 15.6838Z" fill="white"/>
<path d="M9.34633 15.6742C9.35299 15.6772 9.36042 15.6794 9.36708 15.6809C9.35595 15.6787 9.34487 15.675 9.33374 15.6705C9.33817 15.672 9.34186 15.6735 9.34633 15.6742Z" fill="white"/>
<path d="M9.34637 15.6742C9.34194 15.6735 9.3382 15.672 9.33378 15.6705C9.33304 15.6713 9.33154 15.6705 9.33081 15.6698V15.6683C9.33597 15.6713 9.34117 15.6727 9.34637 15.6742Z" fill="#DADDE0"/>
<path d="M9.2959 14.2446L9.3307 15.6683C9.31884 15.6646 9.30698 15.6601 9.2959 15.655V14.2446Z" fill="#D1D1D1"/>
<path d="M9.2959 12.5172V14.2446L9.25293 12.4861L9.2959 12.5172Z" fill="#DADDE0"/>
<path d="M15.0441 7.82312L9.69449 12.5535C9.64117 12.6009 9.6071 12.6661 9.59966 12.7372L9.40742 15.6204C9.40003 15.6804 9.31706 15.6885 9.29927 15.6308L8.43817 11.8476C8.3989 11.7224 8.45003 11.5868 8.56115 11.518L14.8782 7.60019C15.0234 7.50979 15.1723 7.70981 15.0441 7.82312Z" fill="#ADBCC9"/>
</g>
<defs>
<clipPath id="clip0_107_91">
<rect width="22" height="22" fill="white"/>
</clipPath>
</defs>
</svg>
