<svg width="22" height="22" viewBox="0 0 22 22" fill="none" xmlns="http://www.w3.org/2000/svg">
<path d="M16.059 22C15.9242 22 15.7895 21.9945 15.6542 21.9846C13.4295 21.8149 11.2995 21.0134 9.51474 19.6745C6.78978 17.6306 4.36927 15.2098 2.32585 12.4845C0.98675 10.6998 0.18527 8.56982 0.0157284 6.34506C-0.0429047 5.58965 0.0628274 4.83056 0.325653 4.11992C0.58848 3.40934 1.00216 2.76409 1.53821 2.22865L2.91658 0.848624C3.46095 0.305206 4.1987 0 4.96792 0C5.73713 0 6.47489 0.305206 7.01925 0.848624L8.26562 2.09554C8.53502 2.36491 8.74871 2.68472 8.89452 3.03669C9.04034 3.38865 9.11536 3.76592 9.11536 4.14687C9.11536 4.52782 9.04034 4.90509 8.89452 5.25705C8.74871 5.60901 8.53502 5.92886 8.26562 6.1982L7.55058 6.91324C7.25692 7.20811 7.07415 7.59539 7.03317 8.00951C6.99219 8.42368 7.09549 8.83923 7.32562 9.18596C8.77286 11.3608 10.6385 13.2259 12.8138 14.6725C13.1607 14.9023 13.5762 15.0053 13.9902 14.9643C14.4042 14.9233 14.7914 14.7408 15.0865 14.4475L15.8016 13.7325C16.0709 13.4631 16.3908 13.2494 16.7427 13.1036C17.0947 12.9578 17.472 12.8828 17.8529 12.8828C18.2339 12.8828 18.6111 12.9578 18.9631 13.1036C19.3151 13.2494 19.6349 13.4631 19.9042 13.7325L21.1512 14.9789C21.4206 15.2483 21.6343 15.5681 21.7801 15.92C21.9259 16.272 22.0009 16.6493 22.0009 17.0302C22.0009 17.4112 21.9259 17.7884 21.7801 18.1404C21.6343 18.4924 21.4206 18.8122 21.1512 19.0815L19.7695 20.4599C19.2825 20.9479 18.7042 21.335 18.0675 21.5993C17.4309 21.8635 16.7483 21.9997 16.059 22ZM4.96764 1.09889C4.73119 1.09858 4.49693 1.14497 4.27846 1.2354C4.05993 1.32582 3.86142 1.4585 3.69433 1.62582L2.3143 3.00639C1.89053 3.42974 1.56348 3.93989 1.35564 4.50169C1.1478 5.06349 1.0641 5.66369 1.11029 6.26091C1.26475 8.27704 1.99158 10.2072 3.20535 11.8245C5.18639 14.4655 7.5326 16.8117 10.1737 18.7928C11.7908 20.0067 13.721 20.7336 15.7372 20.8878C16.3344 20.9333 16.9343 20.8492 17.496 20.6414C18.0577 20.4336 18.5679 20.107 18.9917 19.6838L20.3718 18.3038C20.7095 17.966 20.8992 17.5079 20.8992 17.0302C20.8992 16.5526 20.7095 16.0944 20.3718 15.7566L19.1249 14.5103C18.782 14.1824 18.3259 13.9995 17.8515 13.9995C17.3772 13.9995 16.9211 14.1824 16.5782 14.5103L15.8632 15.2253C15.3882 15.6981 14.7645 15.9924 14.0975 16.0585C13.4306 16.1245 12.7612 15.9583 12.2027 15.5878C9.90691 14.0606 7.93808 12.0918 6.41092 9.79595C6.04031 9.23745 5.87398 8.56812 5.94004 7.90115C6.0061 7.23419 6.30048 6.61045 6.77339 6.1355L7.48843 5.42046C7.82615 5.08275 8.01585 4.62474 8.01585 4.14714C8.01585 3.66955 7.82615 3.21154 7.48843 2.87383L6.24151 1.62637C6.07436 1.45893 5.87574 1.32615 5.65716 1.23563C5.43858 1.14511 5.20427 1.09864 4.96764 1.09889Z" fill="#0F0F5C"/>
</svg>
