<svg width="164" height="164" viewBox="0 0 164 164" fill="none" xmlns="http://www.w3.org/2000/svg">
<g clip-path="url(#clip0_107_226)">
<path d="M45.0148 105.867V110.282C45.0148 116.905 39.6398 122.28 33.0171 122.28C26.3945 122.28 21.0195 116.905 21.0195 110.282V105.867" stroke="#0F0F5C" stroke-width="4.47899" stroke-linecap="round" stroke-linejoin="round"/>
<path d="M21.0195 105.867C21.1155 95.2131 43.863 89.8382 45.0148 105.867" stroke="#0F0F5C" stroke-width="4.47899" stroke-linecap="round" stroke-linejoin="round"/>
<path fill-rule="evenodd" clip-rule="evenodd" d="M19.7719 127.367H23.3232L32.9213 140.132L42.6153 127.367H46.1666C55.5728 127.367 63.2512 135.141 63.2512 144.547V161.632H2.59131V144.547C2.59131 135.141 10.3658 127.367 19.7719 127.367Z" stroke="#0F0F5C" stroke-width="4.47899" stroke-linecap="round" stroke-linejoin="round"/>
<path d="M42.6151 127.367L38.7759 120.744" stroke="#0F0F5C" stroke-width="4.47899" stroke-linecap="round" stroke-linejoin="round"/>
<path d="M23.3232 127.367L27.1625 120.744" stroke="#0F0F5C" stroke-width="4.47899" stroke-linecap="round" stroke-linejoin="round"/>
<path d="M51.4458 148.195V151.074V161.632" stroke="#0F0F5C" stroke-width="4.47899" stroke-linecap="round" stroke-linejoin="round"/>
<path d="M14.397 148.195V161.632" stroke="#0F0F5C" stroke-width="4.47899" stroke-linecap="round" stroke-linejoin="round"/>
<path d="M45.0151 105.771C53.0774 93.6775 42.9995 89.4543 42.9995 89.4543C39.7361 81.4879 26.1068 81.4879 22.8435 89.4543C22.8435 89.4543 12.8615 93.6775 21.0198 105.867" stroke="#0F0F5C" stroke-width="4.47899" stroke-linecap="round" stroke-linejoin="round"/>
<path d="M142.915 105.867V110.282C142.915 116.905 137.54 122.28 130.918 122.28C124.295 122.28 118.92 116.905 118.92 110.282V105.867" stroke="#0F0F5C" stroke-width="4.47899" stroke-linecap="round" stroke-linejoin="round"/>
<path d="M118.92 105.867C119.016 95.2131 141.859 89.8382 142.915 105.867" stroke="#0F0F5C" stroke-width="4.47899" stroke-linecap="round" stroke-linejoin="round"/>
<path fill-rule="evenodd" clip-rule="evenodd" d="M117.672 127.367H121.224L130.822 140.132L140.516 127.367H144.067C153.473 127.367 161.152 135.141 161.152 144.547V161.632H100.492V144.547C100.492 135.141 108.266 127.367 117.672 127.367Z" stroke="#0F0F5C" stroke-width="4.47899" stroke-linecap="round" stroke-linejoin="round"/>
<path d="M140.516 127.367L136.677 120.744" stroke="#0F0F5C" stroke-width="4.47899" stroke-linecap="round" stroke-linejoin="round"/>
<path d="M121.224 127.367L125.063 120.744" stroke="#0F0F5C" stroke-width="4.47899" stroke-linecap="round" stroke-linejoin="round"/>
<path d="M149.346 148.195V151.074V161.632" stroke="#0F0F5C" stroke-width="4.47899" stroke-linecap="round" stroke-linejoin="round"/>
<path d="M112.297 148.195V161.632" stroke="#0F0F5C" stroke-width="4.47899" stroke-linecap="round" stroke-linejoin="round"/>
<path d="M142.915 105.771C151.074 93.6775 140.9 89.4543 140.9 89.4543C137.636 81.4879 124.007 81.4879 120.744 89.4543C120.744 89.4543 110.762 93.6775 118.92 105.867" stroke="#0F0F5C" stroke-width="4.47899" stroke-linecap="round" stroke-linejoin="round"/>
<path fill-rule="evenodd" clip-rule="evenodd" d="M87.2462 99.6282C88.6859 100.204 89.9337 100.876 91.0855 101.836L99.2438 99.2442L102.795 105.291L96.4604 111.146C96.5564 111.818 96.6524 112.586 96.6524 113.353C96.6524 114.121 96.5564 114.793 96.4604 115.561L102.795 121.32L99.2438 127.367L91.0855 124.871C89.9337 125.735 88.6859 126.503 87.2462 127.079L85.4226 135.429H78.416L76.5924 127.079C75.1526 126.503 73.8089 125.735 72.6571 124.871L64.5947 127.367L61.0435 121.32L67.3782 115.561C67.1862 114.793 67.1862 114.121 67.1862 113.353C67.1862 112.586 67.1862 111.818 67.3782 111.146L61.0435 105.291L64.5947 99.2442L72.6571 101.836C73.8089 100.876 75.1526 100.204 76.5924 99.6282L78.416 91.2778H85.4226L87.2462 99.6282Z" stroke="#0F0F5C" stroke-width="4.47899" stroke-linecap="round" stroke-linejoin="round"/>
<path d="M81.8714 119.688C85.3699 119.688 88.2061 116.852 88.2061 113.354C88.2061 109.855 85.3699 107.019 81.8714 107.019C78.3728 107.019 75.5366 109.855 75.5366 113.354C75.5366 116.852 78.3728 119.688 81.8714 119.688Z" stroke="#0F0F5C" stroke-width="4.47899" stroke-linecap="round" stroke-linejoin="round"/>
<path d="M94.4448 25.4351V30.0421C94.4448 36.8568 88.7819 42.5197 81.9673 42.5197C75.0566 42.5197 69.4897 36.8568 69.4897 30.0421V25.4351" stroke="#0F0F5C" stroke-width="4.47899" stroke-linecap="round" stroke-linejoin="round"/>
<path d="M69.4897 25.435C69.5857 14.3013 93.293 8.83035 94.4448 25.435" stroke="#0F0F5C" stroke-width="4.47899" stroke-linecap="round" stroke-linejoin="round"/>
<path fill-rule="evenodd" clip-rule="evenodd" d="M68.1461 47.8945H71.8894L81.8714 61.1399L91.9494 47.8945H95.5966C105.387 47.8945 113.449 55.8609 113.449 65.651V83.5034H50.3896V65.651C50.3896 55.8609 58.3561 47.8945 68.1461 47.8945Z" stroke="#0F0F5C" stroke-width="4.47899" stroke-linecap="round" stroke-linejoin="round"/>
<path d="M91.9497 47.8945L87.9185 40.9839" stroke="#0F0F5C" stroke-width="4.47899" stroke-linecap="round" stroke-linejoin="round"/>
<path d="M71.8896 47.8945L75.9208 40.8879" stroke="#0F0F5C" stroke-width="4.47899" stroke-linecap="round" stroke-linejoin="round"/>
<path d="M101.164 69.4902V72.4656V83.5034" stroke="#0F0F5C" stroke-width="4.47899" stroke-linecap="round" stroke-linejoin="round"/>
<path d="M62.6753 69.4902V83.5034" stroke="#0F0F5C" stroke-width="4.47899" stroke-linecap="round" stroke-linejoin="round"/>
<path d="M94.4449 25.435C102.891 12.7656 92.3333 8.35043 92.3333 8.35043C88.974 0.0960792 74.7688 0.0960792 71.4095 8.35043C71.4095 8.35043 61.0436 12.7656 69.4899 25.435" stroke="#0F0F5C" stroke-width="4.47899" stroke-linecap="round" stroke-linejoin="round"/>
<path d="M27.7385 52.3098C41.5738 52.3098 52.7895 41.0941 52.7895 27.2588C52.7895 13.4235 41.5738 2.20776 27.7385 2.20776C13.9032 2.20776 2.6875 13.4235 2.6875 27.2588C2.6875 41.0941 13.9032 52.3098 27.7385 52.3098Z" stroke="#0F0F5C" stroke-width="4.47899" stroke-linecap="round" stroke-linejoin="round"/>
<path d="M136.101 52.3098C149.936 52.3098 161.152 41.0941 161.152 27.2588C161.152 13.4235 149.936 2.20776 136.101 2.20776C122.266 2.20776 111.05 13.4235 111.05 27.2588C111.05 41.0941 122.266 52.3098 136.101 52.3098Z" stroke="#0F0F5C" stroke-width="4.47899" stroke-linecap="round" stroke-linejoin="round"/>
<path d="M27.7383 2.20776V9.11839" stroke="#0F0F5C" stroke-width="4.47899" stroke-linecap="round" stroke-linejoin="round"/>
<path d="M52.7895 27.2588H45.8789" stroke="#0F0F5C" stroke-width="4.47899" stroke-linecap="round" stroke-linejoin="round"/>
<path d="M27.7383 52.3098V45.3992" stroke="#0F0F5C" stroke-width="4.47899" stroke-linecap="round" stroke-linejoin="round"/>
<path d="M2.59131 27.2588H9.50193" stroke="#0F0F5C" stroke-width="4.47899" stroke-linecap="round" stroke-linejoin="round"/>
<path d="M27.7383 31.4817C30.0707 31.4817 31.9615 29.5909 31.9615 27.2586C31.9615 24.9262 30.0707 23.0354 27.7383 23.0354C25.4059 23.0354 23.5151 24.9262 23.5151 27.2586C23.5151 29.5909 25.4059 31.4817 27.7383 31.4817Z" stroke="#0F0F5C" stroke-width="4.47899" stroke-linecap="round" stroke-linejoin="round"/>
<path d="M27.7383 15.261V23.0354M30.7137 30.234L33.4971 32.9215" stroke="#0F0F5C" stroke-width="4.47899" stroke-linecap="round" stroke-linejoin="round"/>
<path d="M130 12V41" stroke="#0F0F5C" stroke-width="3" stroke-linecap="round" stroke-linejoin="round"/>
<path d="M130 12H140.497C144.641 12 148 15.357 148 19.5C148 23.6421 144.646 27 140.497 27H130" stroke="#0F0F5C" stroke-width="3" stroke-linecap="round" stroke-linejoin="round"/>
<path d="M127 33H143" stroke="#0F0F5C" stroke-width="3" stroke-linecap="round" stroke-linejoin="round"/>
</g>
<defs>
<clipPath id="clip0_107_226">
<rect width="163.839" height="163.839" fill="white"/>
</clipPath>
</defs>
</svg>
