<svg width="144" height="170" viewBox="0 0 144 170" fill="none" xmlns="http://www.w3.org/2000/svg">
<path fill-rule="evenodd" clip-rule="evenodd" d="M71.9689 148.733L14.2175 90.9817V27.0987L71.9689 3L129.72 27.0987V90.9817L71.9689 148.733Z" stroke="#0F0F5C" stroke-width="6" stroke-linecap="round" stroke-linejoin="round"/>
<path fill-rule="evenodd" clip-rule="evenodd" d="M71.9689 131.194L26.3145 85.563V34.68L71.9689 15.6196L117.6 34.68V85.563L71.9689 131.194Z" stroke="#0F0F5C" stroke-width="6" stroke-linecap="round" stroke-linejoin="round"/>
<path fill-rule="evenodd" clip-rule="evenodd" d="M107.238 113.441L140.914 147.117L118.788 144.17L121.973 166.059L88.2961 132.406L107.238 113.441Z" stroke="#0F0F5C" stroke-width="6" stroke-linecap="round" stroke-linejoin="round"/>
<path fill-rule="evenodd" clip-rule="evenodd" d="M36.6764 113.441L3 147.117L25.1261 144.17L21.9653 166.059L55.6179 132.406L36.6764 113.441Z" stroke="#0F0F5C" stroke-width="6" stroke-linecap="round" stroke-linejoin="round"/>
<path fill-rule="evenodd" clip-rule="evenodd" d="M71.969 37.8884L80.501 53.7641L98.2305 56.9963L85.7771 70.0201L88.2012 87.8683L71.969 80.0493L55.7131 87.8683L58.1372 70.0201L45.6838 56.9963L63.4133 53.7641L71.969 37.8884Z" stroke="#0F0F5C" stroke-width="6" stroke-linecap="round" stroke-linejoin="round"/>
</svg>
