<svg width="179" height="179" viewBox="0 0 179 179" fill="none" xmlns="http://www.w3.org/2000/svg">
<path d="M165.016 5.59375H13.9844C11.7611 5.60038 9.63076 6.48654 8.05864 8.05864C6.48654 9.63076 5.60038 11.7611 5.59375 13.9844V165.016C5.60038 167.239 6.48654 169.369 8.05864 170.941C9.63076 172.513 11.7611 173.4 13.9844 173.406H165.016C167.239 173.4 169.369 172.513 170.941 170.941C172.513 169.369 173.4 167.239 173.406 165.016V13.9844C173.4 11.7611 172.513 9.63076 170.941 8.05864C169.369 6.48654 167.239 5.60038 165.016 5.59375ZM167.812 165.016C167.812 165.757 167.518 166.469 166.993 166.993C166.469 167.518 165.757 167.812 165.016 167.812H13.9844C13.2426 167.812 12.5312 167.518 12.0067 166.993C11.4822 166.469 11.1875 165.757 11.1875 165.016V83.9062H16.7812V159.422C16.7812 160.164 17.0759 160.875 17.6004 161.4C18.125 161.924 18.8363 162.219 19.5781 162.219H159.422C160.164 162.219 160.875 161.924 161.4 161.4C161.924 160.875 162.219 160.164 162.219 159.422V83.9062H167.812V165.016ZM156.625 83.9062V156.625H22.375V83.9062H156.625ZM22.375 78.3125V22.375H156.625V78.3125H22.375ZM167.812 78.3125H162.219V19.5781C162.219 18.8363 161.924 18.125 161.4 17.6004C160.875 17.0759 160.164 16.7812 159.422 16.7812H19.5781C18.8363 16.7812 18.125 17.0759 17.6004 17.6004C17.0759 18.125 16.7812 18.8363 16.7812 19.5781V78.3125H11.1875V13.9844C11.1875 13.2426 11.4822 12.5312 12.0067 12.0067C12.5312 11.4822 13.2426 11.1875 13.9844 11.1875H165.016C165.757 11.1875 166.469 11.4822 166.993 12.0067C167.518 12.5312 167.812 13.2426 167.812 13.9844V78.3125Z" fill="#0F0F5C"/>
<path d="M148.234 123.062H30.7656C30.0239 123.062 29.3124 123.357 28.788 123.882C28.2635 124.406 27.9688 125.118 27.9688 125.859V148.234C27.9688 148.976 28.2635 149.688 28.788 150.212C29.3124 150.736 30.0239 151.031 30.7656 151.031H148.234C148.976 151.031 149.688 150.736 150.212 150.212C150.736 149.688 151.031 148.976 151.031 148.234V125.859C151.031 125.118 150.736 124.406 150.212 123.882C149.688 123.357 148.976 123.062 148.234 123.062ZM145.438 145.438H137.047V134.25H131.453V145.438H125.859V139.844H120.266V145.438H114.672V139.844H109.078V145.438H103.484V134.25H97.8906V145.438H92.2969V139.844H86.7031V145.438H81.1094V139.844H75.5156V145.438H69.9219V134.25H64.3281V145.438H58.7344V139.844H53.1406V145.438H47.5469V139.844H41.9531V145.438H33.5625V128.656H145.438V145.438Z" fill="#0F0F5C"/>
<path d="M148.234 89.5H55.9373C55.5413 89.5 55.15 89.5859 54.7906 89.7517L29.6187 100.939C29.1304 101.162 28.7165 101.52 28.4261 101.971C28.1358 102.422 27.9814 102.948 27.9814 103.484C27.9814 104.021 28.1358 104.546 28.4261 104.997C28.7165 105.449 29.1304 105.807 29.6187 106.03L54.7906 117.217C55.15 117.383 55.5413 117.469 55.9373 117.469H148.234C148.976 117.469 149.687 117.174 150.212 116.65C150.736 116.125 151.031 115.414 151.031 114.672V92.2969C151.031 91.5551 150.736 90.8436 150.212 90.3192C149.687 89.7948 148.976 89.5 148.234 89.5ZM41.953 105.386L37.6458 103.484L41.953 101.582V105.386ZM53.1405 110.365L47.5467 107.875V99.0933L53.1405 96.6041V110.365ZM128.656 111.875H58.7342V106.281H128.656V111.875ZM128.656 100.688H58.7342V95.0938H128.656V100.688ZM145.437 111.875H134.25V95.0938H145.437V111.875Z" fill="#0F0F5C"/>
<path d="M50.3438 72.7188H61.5312C62.273 72.7188 62.9845 72.424 63.5089 71.8995C64.0333 71.3751 64.3281 70.6636 64.3281 69.9219V30.7656C64.3281 30.0239 64.0333 29.3124 63.5089 28.788C62.9845 28.2635 62.273 27.9688 61.5312 27.9688H50.3438C49.602 27.9688 48.8905 28.2635 48.3661 28.788C47.8417 29.3124 47.5469 30.0239 47.5469 30.7656V69.9219C47.5469 70.6636 47.8417 71.3751 48.3661 71.8995C48.8905 72.424 49.602 72.7188 50.3438 72.7188ZM53.1406 33.5625H58.7344V67.125H53.1406V33.5625Z" fill="#0F0F5C"/>
<path d="M117.469 72.7188H128.656C129.398 72.7188 130.11 72.424 130.634 71.8995C131.158 71.3751 131.453 70.6636 131.453 69.9219V30.7656C131.453 30.0239 131.158 29.3124 130.634 28.788C130.11 28.2635 129.398 27.9688 128.656 27.9688H117.469C116.727 27.9688 116.015 28.2635 115.491 28.788C114.967 29.3124 114.672 30.0239 114.672 30.7656V69.9219C114.672 70.6636 114.967 71.3751 115.491 71.8995C116.015 72.424 116.727 72.7188 117.469 72.7188ZM120.266 33.5625H125.859V67.125H120.266V33.5625Z" fill="#0F0F5C"/>
</svg>
