<svg width="145" height="173" viewBox="0 0 145 173" fill="none" xmlns="http://www.w3.org/2000/svg">
<path d="M143.658 133.36C143.702 133.184 143.702 133.001 143.658 132.825C142.297 120.674 137.846 109.074 130.729 99.1307C123.612 89.1878 114.067 81.2339 103.003 76.0275C105.691 72.3979 107.582 68.2418 108.552 63.831H116.475C117.262 63.831 118.017 63.5184 118.574 62.9618C119.13 62.4053 119.443 61.6505 119.443 60.8635V52.7029C119.443 51.9158 119.13 51.161 118.574 50.6045C118.017 50.048 117.262 49.7354 116.475 49.7354H114.576C114.284 45.5174 113.364 41.3666 111.846 37.4202C109.509 31.3105 105.778 25.8304 100.951 21.4155C96.1245 17.0006 90.3341 13.7728 84.0406 11.9887C84.0406 8.80911 82.7775 5.75973 80.5292 3.51141C78.2808 1.26309 75.2315 0 72.0519 0C68.8722 0 65.8229 1.26309 63.5746 3.51141C61.3262 5.75973 60.0631 8.80911 60.0631 11.9887C51.7721 14.441 44.4304 19.3725 39.0247 26.1203C33.619 32.8682 30.4084 41.109 29.8243 49.7354H27.9251C27.138 49.7354 26.3832 50.048 25.8267 50.6045C25.2702 51.161 24.9576 51.9158 24.9576 52.7029V60.8635C24.9576 61.6505 25.2702 62.4053 25.8267 62.9618C26.3832 63.5184 27.138 63.831 27.9251 63.831H35.8483C36.8189 68.2418 38.7099 72.3979 41.3975 76.0275C40.2699 76.5319 39.1719 77.0958 38.1036 77.6893C27.8721 83.1613 19.125 91.0396 12.6163 100.645C6.10761 110.25 2.03266 121.295 0.742743 132.825C0.698773 133.001 0.698773 133.184 0.742743 133.36C-6.67602 165.053 43.2374 172.709 72.1706 172.56C111.727 171.878 149.533 162.797 143.658 133.36ZM7.8054 126.327H31.1003V130.273H7.06353C7.27125 128.938 7.50865 127.632 7.8054 126.327ZM60.6863 89.4702C60.9878 90.9892 61.8057 92.3571 63.0011 93.3416C64.1966 94.326 65.6959 94.8665 67.2445 94.8711H77.0966C78.6452 94.8665 80.1445 94.326 81.34 93.3416C82.5354 92.3571 83.3533 90.9892 83.6548 89.4702C89.3619 87.7485 94.5792 84.6974 98.8781 80.5677L100.629 81.369L98.3736 83.9507L72.1706 114.13L43.7419 81.4877L45.463 80.5677C49.762 84.6974 54.9792 87.7485 60.6863 89.4702ZM97.4834 120.362H75.1381V119.739L97.4834 94.0996V120.362ZM69.2031 119.739V120.392H46.8874V94.0996L69.2031 119.739ZM46.8874 126.327H69.2031V130.273H46.8874V126.327ZM75.1381 126.327H97.4834V130.273H75.1381V126.327ZM46.8874 136.208H69.2031V166.625C61.7335 166.523 54.2787 165.928 46.8874 164.845V136.208ZM75.1381 136.208H97.4834V164.815C90.0829 165.91 82.6182 166.515 75.1381 166.625V136.208ZM113.27 126.327H136.536C136.832 127.632 137.07 128.938 137.278 130.273H113.27V126.327ZM134.874 120.392H113.27V89.4702C123.337 97.4466 130.847 108.196 134.874 120.392ZM37.3914 41.4857H48.935C49.722 41.4857 50.4768 41.1731 51.0333 40.6165C51.5899 40.06 51.9025 39.3052 51.9025 38.5182C51.9025 37.7312 51.5899 36.9764 51.0333 36.4199C50.4768 35.8633 49.722 35.5507 48.935 35.5507H39.8841C44.1807 27.4168 51.4192 21.229 60.1225 18.2502V32.4348C60.1225 33.2219 60.4351 33.9766 60.9917 34.5332C61.5482 35.0897 62.303 35.4023 63.09 35.4023H81.2511C82.0382 35.4023 82.7929 35.0897 83.3495 34.5332C83.906 33.9766 84.2186 33.2219 84.2186 32.4348V18.2502C92.927 21.2362 100.166 27.4353 104.457 35.5804H95.4061C94.6191 35.5804 93.8643 35.893 93.3078 36.4495C92.7513 37.0061 92.4386 37.7608 92.4386 38.5479C92.4386 39.3349 92.7513 40.0897 93.3078 40.6462C93.8643 41.2027 94.6191 41.5154 95.4061 41.5154H106.95C107.797 44.1964 108.345 46.9632 108.582 49.765H35.7593C35.9941 46.9532 36.5415 44.1763 37.3914 41.4857ZM102.38 63.831C100.935 68.5927 98.3163 72.9146 94.7642 76.3993C91.2122 79.884 86.8408 82.4195 82.0524 83.7726C81.432 83.0706 80.6691 82.509 79.8146 82.1252C78.96 81.7414 78.0334 81.5443 77.0966 81.547H67.2445C66.3077 81.5443 65.3811 81.7414 64.5265 82.1252C63.672 82.509 62.9091 83.0706 62.2888 83.7726C57.5003 82.4195 53.129 79.884 49.5769 76.3993C46.0248 72.9146 43.406 68.5927 41.9614 63.831H102.38ZM31.1003 89.4702V120.392H9.4672C13.5008 108.192 21.0219 97.4413 31.1003 89.4702ZM6.17328 141.016C6.17328 139.413 6.23262 137.811 6.35132 136.208H31.1003V161.462C16.3815 157.189 6.17328 150.334 6.17328 141.016ZM113.27 161.462V136.208H137.99C140.126 149.265 130.452 156.269 113.27 161.462Z" fill="#0F0F5C"/>
</svg>
