<svg width="11" height="14" viewBox="0 0 11 14" fill="none" xmlns="http://www.w3.org/2000/svg">
<path fill-rule="evenodd" clip-rule="evenodd" d="M5.5 1.18102C3.13745 1.18102 1.22222 3.0317 1.22222 5.31461C1.22222 6.98618 1.99283 8.60701 2.94727 9.96448C3.87471 11.2836 4.93753 12.3 5.5 12.797C6.06247 12.3 7.12531 11.2836 8.05273 9.96448C9.00717 8.60701 9.77778 6.98618 9.77778 5.31461C9.77778 3.0317 7.86256 1.18102 5.5 1.18102ZM0 5.31461C0 2.37943 2.46244 0 5.5 0C8.53759 0 11 2.37943 11 5.31461C11 7.32342 10.0826 9.17904 9.06369 10.6282C8.03978 12.0845 6.87243 13.1883 6.28247 13.7058C5.83526 14.0981 5.16474 14.0981 4.71753 13.7058C4.12759 13.1883 2.96023 12.0845 1.93629 10.6282C0.917424 9.17904 0 7.32342 0 5.31461ZM5.5 4.13359C4.82497 4.13359 4.27778 4.66235 4.27778 5.31461C4.27778 5.96689 4.82497 6.49564 5.5 6.49564C6.17503 6.49564 6.72222 5.96689 6.72222 5.31461C6.72222 4.66235 6.17503 4.13359 5.5 4.13359ZM3.05556 5.31461C3.05556 4.01009 4.14997 2.95256 5.5 2.95256C6.85001 2.95256 7.94444 4.01009 7.94444 5.31461C7.94444 6.61911 6.85001 7.67666 5.5 7.67666C4.14997 7.67666 3.05556 6.61911 3.05556 5.31461Z" fill="#0F0F5C"/>
</svg>
