<svg width="11" height="11" viewBox="0 0 11 11" fill="none" xmlns="http://www.w3.org/2000/svg">
<path d="M5.5 0C4.41221 0 3.34884 0.322569 2.44437 0.926917C1.5399 1.53126 0.834947 2.39025 0.418665 3.39524C0.00238305 4.40023 -0.106535 5.5061 0.105683 6.573C0.317902 7.63989 0.841726 8.6199 1.61092 9.38909C2.3801 10.1583 3.36011 10.6821 4.42701 10.8943C5.4939 11.1065 6.59977 10.9976 7.60476 10.5813C8.60975 10.1651 9.46874 9.46011 10.0731 8.55564C10.6774 7.65117 11 6.5878 11 5.5C11 4.04131 10.4205 2.64236 9.38909 1.61091C8.35764 0.579463 6.95869 0 5.5 0ZM5.5 10.0839C4.59339 10.0839 3.70714 9.81506 2.95332 9.31138C2.1995 8.80769 1.61197 8.09178 1.26503 7.25418C0.91808 6.41659 0.827304 5.49492 1.00417 4.60572C1.18105 3.71653 1.61762 2.89976 2.25869 2.25869C2.89976 1.61762 3.71654 1.18104 4.60573 1.00417C5.49492 0.827301 6.41659 0.918078 7.25419 1.26502C8.09179 1.61197 8.8077 2.1995 9.31138 2.95332C9.81507 3.70714 10.0839 4.59339 10.0839 5.5C10.0816 6.71503 9.59796 7.87964 8.7388 8.7388C7.87965 9.59796 6.71503 10.0816 5.5 10.0839Z" fill="#0F0F5C"/>
<path d="M7.48508 5.95887L6.26477 5.04106L5.95883 4.81247V2.29106C5.95883 2.16935 5.91048 2.05263 5.82442 1.96656C5.73836 1.8805 5.62163 1.83215 5.49992 1.83215C5.37821 1.83215 5.26149 1.8805 5.17543 1.96656C5.08936 2.05263 5.04102 2.16935 5.04102 2.29106V5.04106C5.04136 5.077 5.04598 5.11277 5.05477 5.14762C5.063 5.18125 5.07572 5.21363 5.09258 5.24387C5.10439 5.274 5.12125 5.3019 5.14242 5.32637C5.14242 5.32637 5.14242 5.34012 5.15617 5.34356C5.17521 5.36578 5.19653 5.38594 5.21977 5.40372L5.23867 5.41747L5.95367 5.95372L7.05367 6.77872C7.13262 6.83889 7.22941 6.87096 7.32867 6.86981C7.4247 6.86945 7.51819 6.83898 7.59598 6.78269C7.67378 6.7264 7.73195 6.64712 7.76232 6.55603C7.79269 6.46493 7.79371 6.3666 7.76525 6.27489C7.73679 6.18318 7.68028 6.10271 7.60367 6.04481L7.48508 5.95887Z" fill="#0F0F5C"/>
</svg>
